/* XPM */
static char *pixmap[] = {
/* width height ncols cpp */
"32 32 60 2",
  /* Colors */
  "00 c #FFFFFF",
  "01 c #FFFFF0",
  "02 c #F0FAF0",
  "03 c #F0F0F0",
  "04 c #EFF4EF",
  "05 c #E0F8E0",
  "06 c #E0EAE0",
  "07 c #E0E0E0",
  "08 c #FFFFDF",
  "09 c #DFE8DF",
  "0A c #DFE6DF",
  "0B c #D0E0D0",
  "0C c #DFDBDF",
  "0D c #DFD7DF",
  "0E c #D0D1D0",
  "0F c #D0CFD0",
  "10 c #CFD9CF",
  "11 c #CFD2CF",
  "12 c #C0D2C0",
  "13 c #CFCACF",
  "14 c #C0C8C0",
  "15 c #CFC0C0",
  "16 c #C0C3C0",
  "17 c #C0BBC0",
  "18 c #BFC2BF",
  "19 c #BFBABF",
  "1A c #BFB4BF",
  "1B c #B0B9B0",
  "1C c #B0B2B0",
  "1D c #B0ABB0",
  "1E c #AFB4AF",
  "1F c #AFA9AF",
  "20 c #A0AAA0",
  "21 c #AFA7A0",
  "22 c #A0A1A0",
  "23 c #9FA79F",
  "24 c #A0989F",
  "25 c #9F989F",
  "26 c #9F949F",
  "27 c #909890",
  "28 c #908A90",
  "29 c #8F888F",
  "2A c #8F8780",
  "2B c #808080",
  "2C c #906FFF",
  "2D c #003FBF",
  "2E c #000080",
  "2F c #FFFF00",
  "30 c #00FF00",
  "31 c #80787F",
  "32 c #7F7070",
  "33 c #6F6760",
  "34 c #60585F",
  "35 c #5F585F",
  "36 c #5F5050",
  "37 c #302F30",
  "38 c #2F272F",
  "39 c #000000",
  "3A c #000000",
  ".. s None c None",
  "......................................39391F1F..................",
  "....................................39281539391F1F..............",
  "..................................392927221D1939391F1F..........",
  "..............393939............39190F251D1A1C1D2439391F1F......",
  "............39..0E..3939........3935350D1C1A1C1D35353139391F1F..",
  "..........39..05..0E..163939....2E2C153535151D353535353538391F1F",
  "........39..03..0E..14..1639..2E2C2D352C19353521353535323439281F",
  "......39..03..06..0E..16..392E2C2D..2D2E21083535353137333639271F",
  "....39..05..06..0E..16..16392C2D..2C2E39392F08302A353334392B1F..",
  "..39..06..06..0B..10..1222392E....2C2E....39393030333439271F....",
  "39..0B..0B..0B..10..0E222239......2E2C2E2E....393933392B1F......",
  "3907..01..0B..10..0B..22..39........2E2E2C2E2E....39............",
  "39..06..010110..0B..0E1214391F1F........2E2E2C2E2E..............",
  "3906..06..07..0E..12..14..392B281F1F3939....2E2E2C2D............",
  "39..05..07..0E..17..14..16392B2B283900063939....2C2D............",
  "3907..07..0B..1B..1B..1C..392B273900..06..0E39392D2E............",
  "39..07..1C1C1C..1C..1C..1C39273900..04..0C..0E203939............",
  "3902..0B3030..1C..1C..2039273900..02..04..0C..2213163939........",
  "39..02..010120..20..2039273900..02..02..0C..0E..1F..18..3939....",
  "390B..16..1B..22..2239273900..04..02..14..0E..191C1F22221C1C39..",
  "39..0B..1B..22..2239273900..06..04..141D181813..1C1C22221F0539..",
  "..39391C..1C..27392739000A0A..061616..1818131B16..1C1F27051939..",
  "......3939..2739271F390000..09..18180E..131B261E19..1F0517..391F",
  "..........3939271F..3906..00..16..131B1B16161819..19051B..203927",
  "....................39..0A..1700001B1B..1C1E19..19051B..1E39271F",
  "....................3906..0E..0E..000019261F..19051B..1E39271F..",
  "....................393913..11..13..1F0000..1C051B..1E39271F....",
  "........................3939..13..16..18..00051E..1E39271F......",
  "............................393916..203023..20..2039271F........",
  "................................3939..103011..2339271F..........",
  "....................................393911..2339271F............",
  "........................................393939271F..............",
};
